:SAMPLES-PER-SECOND 30
:FULLY-SPECIFIED
:DEGREES
81
root  2.63207 38.2594 -8.8334 -164.189 -84.3477 156.953
RightUpLeg  25.2237 -13.6943 -11.4405
RightLeg  18.8745 10.9948 4.87529
RightFoot  -19.6349 0.130169 3.65485
RightToes  2.91037e-010 0 -3.6325e-017
Spine  0.768044 3.24935 7.57545
Spine1  15.8325 6.5433 -8.1534
HEad  1.66736 1.75602 -2.56813
LeftShoulder1  7.59152 -11.2608 -44.7892
LeftArm  -9.42164 33.3232 -27.2451
LeftForeArm  27.9435 -7.99674 -4.94187
LeftHand  -0.244104 0.0205437 5.32207
RightShoulder  5.15073 8.84376 35.7387
RightArm  4.5914 3.11645 39.4276
RightForeArm  4.45388 31.0953 6.57118
RightHand  -0.804321 0.981583 -14.7411
LeftUpLeg  -18.2795 6.59409 -2.53837
LeftLeg  5.60427 23.8114 -3.72233
LeftFoot  2.89161 -0.460918 3.45263
LeftToes  1.46425e-010 1.43544e-010 6.23391e-011
82
root  0.64158 38.1101 -8.76749 -149.944 -83.4801 142.065
RightUpLeg  25.7165 -12.4092 -14.3769
RightLeg  24.1162 11.7432 5.36129
RightFoot  -15.6154 0.205972 9.08107
RightToes  2.91037e-010 0 -3.6325e-017
Spine  0.443375 3.57678 4.72029
Spine1  15.6532 6.71461 -7.78712
HEad  2.02281 1.56706 -1.75557
LeftShoulder1  7.57638 -11.1363 -45.0914
LeftArm  -8.78247 32.2636 -26.3944
LeftForeArm  28.3218 -8.3596 -5.16915
LeftHand  -0.244104 0.0205437 5.32207
RightShoulder  5.28434 8.94147 36.4681
RightArm  3.98501 0.84039 39.8328
RightForeArm  3.63137 28.756 6.03215
RightHand  -0.886484 1.47382 -15.0869
LeftUpLeg  -19.3749 14.5025 -8.10984
LeftLeg  12.3607 12.6952 0.164557
LeftFoot  6.77873 -1.30074 7.96642
LeftToes  1.46425e-010 1.43544e-010 6.23391e-011
83
root  -1.16879 38.1181 -8.66139 -136.447 -82.9334 127.914
RightUpLeg  22.4029 -9.2327 -15.3265
RightLeg  33.7208 8.56952 5.82263
RightFoot  -5.81397 -0.655392 12.951
RightToes  2.91037e-010 0 -3.6325e-017
Spine  1.16762 3.23799 2.6217
Spine1  14.7287 6.42398 -8.18995
HEad  1.86443 1.60372 -1.36423
LeftShoulder1  7.61279 -11.1025 -45.4241
LeftArm  -8.37182 30.2249 -25.4904
LeftForeArm  28.3957 -8.81216 -5.33027
LeftHand  -0.244104 0.0205437 5.32207
RightShoulder  5.33314 8.96663 36.7647
RightArm  3.98906 -1.31126 41.2751
RightForeArm  2.19111 24.9599 5.26486
RightHand  -1.02595 2.19795 -15.8231
LeftUpLeg  -19.5043 18.239 -12.0468
LeftLeg  17.3823 7.08033 2.8363
LeftFoot  6.16766 -1.62597 10.3039
LeftToes  1.46425e-010 1.43544e-010 6.23391e-011
84
root  -2.67735 38.1453 -8.54261 -126.701 -82.135 117.564
RightUpLeg  15.7108 -6.08061 -15.421
RightLeg  46.2317 4.6477 4.82707
RightFoot  5.96718 -1.90947 12.921
RightToes  2.91037e-010 0 -3.6325e-017
Spine  2.76546 2.76388 1.0261
Spine1  13.9964 6.00468 -9.016
HEad  0.573244 1.79465 -1.81356
LeftShoulder1  7.80582 -11.3471 -45.8243
LeftArm  -8.85528 27.0739 -25.0286
LeftForeArm  28.0176 -9.53427 -5.2205
LeftHand  -0.244104 0.0205437 5.32207
RightShoulder  5.33686 9.07644 36.4317
RightArm  3.97846 -2.88166 43.0855
RightForeArm  1.27322 20.7187 5.10214
RightHand  -1.02743 2.11344 -16.0072
LeftUpLeg  -17.9746 16.4258 -13.1006
LeftLeg  21.0447 9.14018 4.21192
LeftFoot  2.3587 -1.28992 10.5586
LeftToes  1.46425e-010 1.43544e-010 6.23391e-011
85
root  -3.98567 38.2154 -8.46352 -123.192 -80.6996 113.326
RightUpLeg  7.8874 -2.79021 -15.5127
RightLeg  57.9338 1.49117 2.10566
RightFoot  11.9951 -2.04867 10.2618
RightToes  2.91037e-010 0 -3.6325e-017
Spine  4.64593 2.60525 -1.04254
Spine1  14.007 5.66484 -9.39034
HEad  -1.51966 2.22016 -2.92041
LeftShoulder1  8.00642 -11.6685 -46.0156
LeftArm  -10.0514 23.2819 -25.323
LeftForeArm  27.2038 -11.0129 -4.86603
LeftHand  -0.244104 0.0205437 5.32207
RightShoulder  5.44968 9.43237 36.142
RightArm  3.15612 -3.71597 43.8787
RightForeArm  3.2998 17.0167 6.26089
RightHand  -0.863719 1.21645 -15.2587
LeftUpLeg  -15.5508 16.6817 -14.2654
LeftLeg  22.5376 9.63043 4.69264
LeftFoot  -0.948053 -0.917058 10.1255
LeftToes  1.46425e-010 1.43544e-010 6.23391e-011
86
root  -5.33421 38.4934 -8.39524 -122.072 -80.0213 111.317
RightUpLeg  0.88047 -0.800257 -15.2762
RightLeg  65.9048 -0.327892 -1.38451
RightFoot  11.213 -1.26461 6.66719
RightToes  2.91037e-010 0 -3.6325e-017
Spine  6.22984 2.21232 -2.4626
Spine1  14.1135 5.00344 -8.93599
HEad  -3.39666 2.86719 -4.04211
LeftShoulder1  8.01238 -11.783 -45.6943
LeftArm  -10.8703 19.3796 -26.1109
LeftForeArm  25.9037 -13.5582 -4.43543
LeftHand  -0.244104 0.0205437 5.32207
RightShoulder  5.66332 9.87771 36.3317
RightArm  3.68952 -4.32987 43.5848
RightForeArm  6.22129 14.5674 7.30478
RightHand  -0.750147 0.615492 -14.577
LeftUpLeg  -11.9376 17.5964 -14.4473
LeftLeg  21.9587 8.91462 4.27712
LeftFoot  -2.53386 -0.74543 9.85703
LeftToes  1.46425e-010 1.43544e-010 6.23391e-011
87
root  -6.66781 38.8896 -8.31421 -117.476 -80.7668 106.015
RightUpLeg  -4.92202 -0.678359 -14.3629
RightLeg  68.7874 -1.06622 -3.7695
RightFoot  7.61217 -0.640728 4.17379
RightToes  2.91037e-010 0 -3.6325e-017
Spine  7.57498 1.26994 -2.65834
Spine1  13.8891 3.81141 -8.19324
HEad  -4.35613 3.42695 -4.68714
LeftShoulder1  7.85241 -11.6985 -45.0055
LeftArm  -10.5745 15.5919 -26.8075
LeftForeArm  24.5009 -17.1923 -3.96407
LeftHand  -0.244104 0.0205437 5.32207
RightShoulder  5.7869 10.0824 36.5976
RightArm  4.56055 -5.60428 43.0957
RightForeArm  8.57876 13.5272 7.76685
RightHand  -0.792056 0.835489 -14.8385
LeftUpLeg  -7.85753 17.2872 -13.529
LeftLeg  20.3827 8.4795 3.77394
LeftFoot  -3.54692 -0.621418 9.40129
LeftToes  1.46425e-010 1.43544e-010 6.23391e-011
88
root  -7.93036 39.1743 -8.24646 -108.036 -82.0469 96.1768
RightUpLeg  -9.86469 -1.40739 -13.1522
RightLeg  67.3628 -1.48746 -4.63648
RightFoot  4.76527 -0.416887 3.18621
RightToes  2.91037e-010 0 -3.6325e-017
Spine  8.74923 0.310848 -2.43337
Spine1  13.5698 2.48296 -7.46949
HEad  -4.48573 3.55871 -4.74919
LeftShoulder1  7.67806 -11.5698 -44.3544
LeftArm  -10.3471 12.0581 -27.1518
LeftForeArm  24.5687 -21.9051 -3.69103
LeftHand  -0.244104 0.0205437 5.32207
RightShoulder  5.73044 9.99035 36.4722
RightArm  4.96416 -7.95149 42.8289
RightForeArm  8.59734 13.8352 7.66054
RightHand  -0.890116 1.32499 -15.4827
LeftUpLeg  -4.45839 15.8434 -12.2464
LeftLeg  19.4944 8.44814 3.374
LeftFoot  -5.14906 -0.442167 8.73559
LeftToes  1.46425e-010 1.43544e-010 6.23391e-011
89
root  -9.20301 39.4169 -8.20106 -95.6693 -82.9092 83.509
RightUpLeg  -13.6578 -2.2132 -12.029
RightLeg  62.1465 -2.50888 -5.64829
RightFoot  3.1979 -0.27029 2.28681
RightToes  2.91037e-010 0 -3.6325e-017
Spine  9.50574 -0.283558 -2.4645
Spine1  13.4779 1.43094 -6.37394
HEad  -4.28426 3.21826 -4.33212
LeftShoulder1  7.55992 -11.4559 -43.9864
LeftArm  -12.0364 8.95804 -27.2277
LeftForeArm  27.5507 -27.5934 -4.42922
LeftHand  -0.244104 0.0205437 5.32207
RightShoulder  5.61722 9.83533 36.1267
RightArm  5.51477 -10.9142 42.3496
RightForeArm  6.00828 15.0953 7.25641
RightHand  -0.942218 1.61772 -15.7114
LeftUpLeg  -1.12932 14.1235 -10.9856
LeftLeg  18.3764 8.39948 2.53714
LeftFoot  -6.42763 -0.325577 8.48953
LeftToes  1.46425e-010 1.43544e-010 6.23391e-011
90
root  -10.4955 39.6199 -8.186 -83.4334 -83.0221 71.0665
RightUpLeg  -15.9923 -3.20617 -11.3515
RightLeg  53.3918 -4.31384 -6.59367
RightFoot  1.60943 -0.184426 1.73238
RightToes  2.91037e-010 0 -3.6325e-017
Spine  9.77136 -0.486935 -3.03234
Spine1  13.7214 0.704042 -4.98916
HEad  -4.14011 2.54633 -3.62636
LeftShoulder1  7.48546 -11.3575 -43.8332
LeftArm  -13.6555 6.23639 -27.2454
LeftForeArm  30.6966 -33.8037 -5.74911
LeftHand  -0.244104 0.0205437 5.32207
RightShoulder  5.55119 9.74945 35.9067
RightArm  6.10884 -13.7203 41.4088
RightForeArm  3.26155 16.3443 6.85488
RightHand  -0.965402 1.79443 -15.7076
LeftUpLeg  2.06837 12.0766 -10.0428
LeftLeg  17.1233 8.8555 1.48318
LeftFoot  -7.38437 -0.248313 8.45437
LeftToes  1.46425e-010 1.43544e-010 6.23391e-011
91
root  -11.8299 39.632 -8.22286 -72.9868 -82.3756 60.6718
RightUpLeg  -17.0291 -4.82095 -11.2743
RightLeg  41.9443 -5.58349 -5.67684
RightFoot  0.207515 -0.223137 2.22142
RightToes  2.91037e-010 0 -3.6325e-017
Spine  9.53392 -0.452227 -4.20107
Spine1  14.0857 0.213953 -3.94736
HEad  -4.17592 1.58624 -2.82979
LeftShoulder1  7.4129 -11.285 -43.6093
LeftArm  -14.1772 3.59578 -27.3258
LeftForeArm  32.6879 -39.4897 -7.15865
LeftHand  -0.244104 0.0205437 5.32207
RightShoulder  5.4922 9.65128 35.7736
RightArm  5.61179 -16.0152 40.444
RightForeArm  2.92675 16.6496 6.68335
RightHand  -0.996999 1.99283 -15.7923
LeftUpLeg  4.27379 10.5349 -9.67379
LeftLeg  17.3886 9.07176 0.919915
LeftFoot  -9.41952 -0.0778006 7.9154
LeftToes  1.46425e-010 1.43544e-010 6.23391e-011
92
root  -13.2342 39.5431 -8.28393 -63.884 -81.3587 51.8811
RightUpLeg  -17.078 -7.55339 -11.1503
RightLeg  28.783 -4.80102 -3.21272
RightFoot  0.0771656 -0.310918 3.105
RightToes  2.91037e-010 0 -3.6325e-017
Spine  8.77244 -0.423411 -5.24901
Spine1  14.4621 -0.10846 -3.13453
HEad  -4.35845 0.265981 -1.98092
LeftShoulder1  7.28404 -11.1983 -43.0739
LeftArm  -13.8055 0.822277 -27.6456
LeftForeArm  33.9419 -43.7524 -8.39947
LeftHand  -0.244104 0.0205437 5.32207
RightShoulder  5.40821 9.51034 35.5846
RightArm  3.53669 -17.8746 39.8386
RightForeArm  4.8834 15.7694 6.81331
RightHand  -1.0037 2.10258 -15.673
LeftUpLeg  6.0536 9.8275 -9.45253
LeftLeg  18.1839 8.28841 0.696146
LeftFoot  -11.9061 0.108405 7.22078
LeftToes  1.46425e-010 1.43544e-010 6.23391e-011
93
root  -14.6461 39.4966 -8.3378 -55.8195 -80.1366 44.1573
RightUpLeg  -16.1594 -10.7846 -10.9374
RightLeg  14.8106 -3.06004 -0.667818
RightFoot  0.758132 -0.437422 4.16885
RightToes  2.91037e-010 0 -3.6325e-017
Spine  7.78968 -0.450659 -5.7975
Spine1  15.0142 -0.359944 -2.16194
HEad  -4.6094 -1.43237 -0.98641
LeftShoulder1  7.08623 -11.0553 -42.266
LeftArm  -12.8192 -2.10177 -28.2384
LeftForeArm  34.9292 -46.2757 -9.21211
LeftHand  -0.244104 0.0205437 5.32207
RightShoulder  5.35179 9.42112 35.4381
RightArm  0.300743 -19.3643 39.4897
RightForeArm  7.4807 13.9468 7.14229
RightHand  -0.943872 1.97346 -15.0044
LeftUpLeg  8.19706 9.33434 -9.17744
LeftLeg  18.0482 6.97349 0.484673
LeftFoot  -13.5681 0.21886 7.00293
LeftToes  1.46425e-010 1.43544e-010 6.23391e-011
94
root  -16.0811 39.3707 -8.40949 -50.5561 -78.5562 38.9854
RightUpLeg  -14.3381 -11.3377 -12.0295
RightLeg  2.47803 -4.28878 1.89236
RightFoot  0.637202 -0.595916 5.7394
RightToes  2.91037e-010 0 -3.6325e-017
Spine  7.00498 -0.422407 -6.3472
Spine1  15.5441 -0.498459 -1.46334
HEad  -4.79967 -3.35794 0.0651108
LeftShoulder1  6.89153 -10.921 -41.4305
LeftArm  -11.4452 -5.0146 -28.9152
LeftForeArm  35.7136 -47.1739 -9.49395
LeftHand  -0.244104 0.0205437 5.32207
RightShoulder  5.34374 9.40991 35.4121
RightArm  -3.45996 -20.39 39.3194
RightForeArm  9.82029 11.4606 7.40973
RightHand  -0.811726 1.45975 -13.8674
LeftUpLeg  10.4828 9.18511 -8.95976
LeftLeg  18.2595 5.34658 0.456588
LeftFoot  -15.4247 0.32631 6.59571
LeftToes  1.46425e-010 1.43544e-010 6.23391e-011
95
root  -17.5702 39.1164 -8.51016 -48.1532 -77.0858 36.4335
RightUpLeg  -13.0801 -11.6446 -12.9179
RightLeg  -3.82733 -5.90221 3.48056
RightFoot  -0.702181 -0.635351 6.72105
RightToes  2.91037e-010 0 -3.6325e-017
Spine  6.6541 -0.262525 -6.6253
Spine1  15.6019 -0.341694 -1.38898
HEad  -4.73173 -5.23603 0.859062
LeftShoulder1  6.75785 -10.8706 -40.7154
LeftArm  -10.0302 -7.41881 -29.6182
LeftForeArm  36.1349 -46.9021 -9.36447
LeftHand  -0.244104 0.0205437 5.32207
RightShoulder  5.3446 9.42744 35.3637
RightArm  -6.67056 -20.9137 39.4493
RightForeArm  11.8996 8.7384 7.30307
RightHand  -0.623894 0.448027 -12.4656
LeftUpLeg  12.7577 9.63798 -8.4569
LeftLeg  19.3498 3.42215 0.571669
LeftFoot  -17.9859 0.411271 5.23922
LeftToes  1.46425e-010 1.43544e-010 6.23391e-011
